<svg width="24" height="24" viewBox="0 0 24 24" fill="none" xmlns="http://www.w3.org/2000/svg">
<g clip-path="url(#clip0)">
<path d="M23.5673 12.0032C23.0987 11.1383 22.2982 10.5082 21.3134 10.229C20.9788 10.1341 20.6343 10.0859 20.2894 10.0859C19.6905 10.0859 19.1158 10.2312 18.6038 10.4911C18.6055 10.2214 18.6041 9.96878 18.6028 9.73478C18.6019 9.59159 18.6011 9.45472 18.6011 9.32443C18.6011 8.96621 18.3107 8.67578 17.9525 8.67578H0.65211C0.293895 8.67578 0.00346368 8.96621 0.00346368 9.32443C0.00346368 9.45464 0.00265288 9.59159 0.00184207 9.73478C-0.0126714 12.2668 -0.0396716 16.9797 4.12286 21.9053C4.24618 22.0511 4.42739 22.1353 4.61826 22.1353H13.9863C14.1772 22.1353 14.3584 22.0511 14.4817 21.9053C14.8708 21.4449 15.2231 20.9864 15.5424 20.5313C16.3996 20.4007 22.4525 19.3281 23.8111 14.9553C24.1299 13.9298 24.0432 12.8814 23.5673 12.0032ZM4.92247 20.838C1.37251 16.5019 1.28681 12.4815 1.29792 9.97315H17.3068C17.3179 12.4814 17.2322 16.5019 13.6822 20.838H4.92247ZM22.5724 14.5703C21.7192 17.3162 18.3495 18.5333 16.5029 19.0034C17.9409 16.429 18.3998 14.0316 18.5423 12.1213C18.9933 11.6622 19.618 11.3832 20.2894 11.3832C20.5146 11.3832 20.7401 11.4149 20.9594 11.477C21.605 11.66 22.1261 12.0664 22.4268 12.6212C22.7391 13.1977 22.7894 13.8716 22.5724 14.5703Z" fill="white"/>
<path d="M5.89844 6.64875C5.89844 7.00697 6.18887 7.2974 6.54708 7.2974C6.9053 7.2974 7.19573 7.00697 7.19573 6.64875C7.19573 6.44913 7.2293 6.37786 7.29611 6.23573C7.39065 6.03489 7.52005 5.75995 7.52005 5.2703C7.52005 4.78065 7.39065 4.50563 7.29611 4.30487C7.2293 4.16274 7.19573 4.09147 7.19573 3.89185C7.19573 3.69231 7.2293 3.62096 7.29611 3.4789C7.39065 3.27815 7.52005 3.0032 7.52005 2.51364C7.52005 2.15542 7.22962 1.86499 6.87141 1.86499C6.51319 1.86499 6.22276 2.15542 6.22276 2.51364C6.22276 2.71318 6.18919 2.78453 6.12238 2.92658C6.02784 3.12734 5.89844 3.40228 5.89844 3.89185C5.89844 4.38141 6.02784 4.65644 6.12238 4.85719C6.18919 4.99933 6.22276 5.0706 6.22276 5.2703C6.22276 5.46992 6.18919 5.54127 6.12238 5.68341C6.02776 5.88416 5.89844 6.15919 5.89844 6.64875Z" fill="white"/>
<path d="M8.49219 6.64875C8.49219 7.00697 8.78262 7.2974 9.14084 7.2974C9.49905 7.2974 9.78948 7.00697 9.78948 6.64875C9.78948 6.44913 9.82305 6.37786 9.88986 6.23573C9.9844 6.03489 10.1138 5.75995 10.1138 5.2703C10.1138 4.78065 9.9844 4.50563 9.88986 4.30487C9.82305 4.16274 9.78948 4.09147 9.78948 3.89185C9.78948 3.69231 9.82305 3.62096 9.88986 3.4789C9.9844 3.27815 10.1138 3.0032 10.1138 2.51364C10.1138 2.15542 9.82338 1.86499 9.46516 1.86499C9.10694 1.86499 8.81651 2.15542 8.81651 2.51364C8.81651 2.71318 8.78294 2.78453 8.71613 2.92658C8.62159 3.12734 8.49219 3.40228 8.49219 3.89185C8.49219 4.38141 8.62159 4.65644 8.71613 4.85719C8.78294 4.99933 8.81651 5.0706 8.81651 5.2703C8.81651 5.46992 8.78294 5.54127 8.71613 5.68341C8.62151 5.88416 8.49219 6.15919 8.49219 6.64875Z" fill="white"/>
<path d="M11.0859 6.64875C11.0859 7.00697 11.3764 7.2974 11.7346 7.2974C12.0928 7.2974 12.3832 7.00697 12.3832 6.64875C12.3832 6.44913 12.4168 6.37786 12.4836 6.23573C12.5781 6.03489 12.7076 5.75995 12.7076 5.2703C12.7076 4.78065 12.5781 4.50563 12.4836 4.30487C12.4168 4.16274 12.3832 4.09147 12.3832 3.89185C12.3832 3.69231 12.4168 3.62096 12.4836 3.4789C12.5781 3.27815 12.7076 3.0032 12.7076 2.51364C12.7076 2.15542 12.4171 1.86499 12.0589 1.86499C11.7007 1.86499 11.4103 2.15542 11.4103 2.51364C11.4103 2.71318 11.3767 2.78453 11.3099 2.92658C11.2153 3.12734 11.0859 3.40228 11.0859 3.89185C11.0859 4.38141 11.2153 4.65644 11.3099 4.85719C11.3767 4.99933 11.4103 5.0706 11.4103 5.2703C11.4103 5.46992 11.3767 5.54127 11.3099 5.68341C11.2153 5.88416 11.0859 6.15919 11.0859 6.64875Z" fill="white"/>
</g>
<defs>
<clipPath id="clip0">
<rect width="24" height="24" fill="white"/>
</clipPath>
</defs>
</svg>
