<svg width="24" height="26" viewBox="0 0 24 26" fill="none" xmlns="http://www.w3.org/2000/svg">
<g clip-path="url(#clip0)">
<path d="M20.1837 17.204C20.5221 16.8559 20.5221 16.2767 20.1837 15.9164C19.8567 15.5684 19.3126 15.5684 18.9864 15.9164L12.8534 22.4451L12.8534 0.901373C12.8526 0.399168 12.4776 -3.47937e-07 12.0059 -3.68558e-07C11.5341 -3.8918e-07 11.1469 0.399168 11.1469 0.901373L11.1469 22.4451L5.02537 15.9164C4.68697 15.5684 4.14204 15.5684 3.81584 15.9164C3.47745 16.2767 3.47745 16.8567 3.81584 17.204L11.4007 25.2782C11.7277 25.6384 12.2719 25.6384 12.5981 25.2782L20.1837 17.204Z" fill="white"/>
</g>
<defs>
<clipPath id="clip0">
<rect width="25.5484" height="24" fill="white" transform="translate(24) rotate(90)"/>
</clipPath>
</defs>
</svg>
