<svg width="78" height="66" viewBox="0 0 78 66" fill="none" xmlns="http://www.w3.org/2000/svg">
<path d="M12.0886 66L1.15129 56.9589C6.3321 51.1324 9.78598 45.8082 11.5129 40.9863C13.2399 36.1644 14.1033 31.242 14.1033 26.2192L21.0111 31.0411H0V0H29.6458V22C29.6458 30.2374 28.3026 37.8721 25.6162 44.9041C23.1218 51.9361 18.6125 58.968 12.0886 66ZM60.4428 66L49.5055 56.9589C54.6863 51.1324 58.1402 45.8082 59.8672 40.9863C61.5941 36.1644 62.4576 31.242 62.4576 26.2192L69.3653 31.0411H48.3542V0H78V22C78 30.2374 76.6568 37.8721 73.9705 44.9041C71.476 51.9361 66.9668 58.968 60.4428 66Z" fill="#EAEAEA"/>
</svg>
