<svg width="380" height="3" viewBox="0 0 380 3" fill="none" xmlns="http://www.w3.org/2000/svg">
<path d="M0.97125 1.056C0.97125 1.632 1.40325 2.064 1.97925 2.064C2.53925 2.064 2.98725 1.632 2.98725 1.056C2.98725 0.496 2.53925 0.0479999 1.97925 0.0479999C1.40325 0.0479999 0.97125 0.496 0.97125 1.056ZM5.86188 1.056C5.86188 1.632 6.29388 2.064 6.86988 2.064C7.42988 2.064 7.87788 1.632 7.87788 1.056C7.87788 0.496 7.42988 0.0479999 6.86988 0.0479999C6.29388 0.0479999 5.86188 0.496 5.86188 1.056ZM10.7525 1.056C10.7525 1.632 11.1845 2.064 11.7605 2.064C12.3205 2.064 12.7685 1.632 12.7685 1.056C12.7685 0.496 12.3205 0.0479999 11.7605 0.0479999C11.1845 0.0479999 10.7525 0.496 10.7525 1.056ZM15.6431 1.056C15.6431 1.632 16.0751 2.064 16.6511 2.064C17.2111 2.064 17.6591 1.632 17.6591 1.056C17.6591 0.496 17.2111 0.0479999 16.6511 0.0479999C16.0751 0.0479999 15.6431 0.496 15.6431 1.056ZM20.5338 1.056C20.5338 1.632 20.9658 2.064 21.5418 2.064C22.1018 2.064 22.5498 1.632 22.5498 1.056C22.5498 0.496 22.1018 0.0479999 21.5418 0.0479999C20.9658 0.0479999 20.5338 0.496 20.5338 1.056ZM25.4244 1.056C25.4244 1.632 25.8564 2.064 26.4324 2.064C26.9924 2.064 27.4404 1.632 27.4404 1.056C27.4404 0.496 26.9924 0.0479999 26.4324 0.0479999C25.8564 0.0479999 25.4244 0.496 25.4244 1.056ZM30.315 1.056C30.315 1.632 30.747 2.064 31.323 2.064C31.883 2.064 32.331 1.632 32.331 1.056C32.331 0.496 31.883 0.0479999 31.323 0.0479999C30.747 0.0479999 30.315 0.496 30.315 1.056ZM35.2056 1.056C35.2056 1.632 35.6376 2.064 36.2136 2.064C36.7736 2.064 37.2216 1.632 37.2216 1.056C37.2216 0.496 36.7736 0.0479999 36.2136 0.0479999C35.6376 0.0479999 35.2056 0.496 35.2056 1.056ZM40.0963 1.056C40.0963 1.632 40.5283 2.064 41.1043 2.064C41.6643 2.064 42.1123 1.632 42.1123 1.056C42.1123 0.496 41.6643 0.0479999 41.1043 0.0479999C40.5283 0.0479999 40.0963 0.496 40.0963 1.056ZM44.9869 1.056C44.9869 1.632 45.4189 2.064 45.9949 2.064C46.5549 2.064 47.0029 1.632 47.0029 1.056C47.0029 0.496 46.5549 0.0479999 45.9949 0.0479999C45.4189 0.0479999 44.9869 0.496 44.9869 1.056ZM49.8775 1.056C49.8775 1.632 50.3095 2.064 50.8855 2.064C51.4455 2.064 51.8935 1.632 51.8935 1.056C51.8935 0.496 51.4455 0.0479999 50.8855 0.0479999C50.3095 0.0479999 49.8775 0.496 49.8775 1.056ZM54.7681 1.056C54.7681 1.632 55.2001 2.064 55.7761 2.064C56.3361 2.064 56.7841 1.632 56.7841 1.056C56.7841 0.496 56.3361 0.0479999 55.7761 0.0479999C55.2001 0.0479999 54.7681 0.496 54.7681 1.056ZM59.6588 1.056C59.6588 1.632 60.0908 2.064 60.6668 2.064C61.2268 2.064 61.6748 1.632 61.6748 1.056C61.6748 0.496 61.2268 0.0479999 60.6668 0.0479999C60.0908 0.0479999 59.6588 0.496 59.6588 1.056ZM64.5494 1.056C64.5494 1.632 64.9814 2.064 65.5574 2.064C66.1174 2.064 66.5654 1.632 66.5654 1.056C66.5654 0.496 66.1174 0.0479999 65.5574 0.0479999C64.9814 0.0479999 64.5494 0.496 64.5494 1.056ZM69.44 1.056C69.44 1.632 69.872 2.064 70.448 2.064C71.008 2.064 71.456 1.632 71.456 1.056C71.456 0.496 71.008 0.0479999 70.448 0.0479999C69.872 0.0479999 69.44 0.496 69.44 1.056ZM74.3306 1.056C74.3306 1.632 74.7626 2.064 75.3386 2.064C75.8986 2.064 76.3466 1.632 76.3466 1.056C76.3466 0.496 75.8986 0.0479999 75.3386 0.0479999C74.7626 0.0479999 74.3306 0.496 74.3306 1.056ZM79.2213 1.056C79.2213 1.632 79.6533 2.064 80.2293 2.064C80.7893 2.064 81.2373 1.632 81.2373 1.056C81.2373 0.496 80.7893 0.0479999 80.2293 0.0479999C79.6533 0.0479999 79.2213 0.496 79.2213 1.056ZM84.1119 1.056C84.1119 1.632 84.5439 2.064 85.1199 2.064C85.6799 2.064 86.1279 1.632 86.1279 1.056C86.1279 0.496 85.6799 0.0479999 85.1199 0.0479999C84.5439 0.0479999 84.1119 0.496 84.1119 1.056ZM89.0025 1.056C89.0025 1.632 89.4345 2.064 90.0105 2.064C90.5705 2.064 91.0185 1.632 91.0185 1.056C91.0185 0.496 90.5705 0.0479999 90.0105 0.0479999C89.4345 0.0479999 89.0025 0.496 89.0025 1.056ZM93.8931 1.056C93.8931 1.632 94.3251 2.064 94.9011 2.064C95.4611 2.064 95.9091 1.632 95.9091 1.056C95.9091 0.496 95.4611 0.0479999 94.9011 0.0479999C94.3251 0.0479999 93.8931 0.496 93.8931 1.056ZM98.7838 1.056C98.7838 1.632 99.2158 2.064 99.7918 2.064C100.352 2.064 100.8 1.632 100.8 1.056C100.8 0.496 100.352 0.0479999 99.7918 0.0479999C99.2158 0.0479999 98.7838 0.496 98.7838 1.056ZM103.674 1.056C103.674 1.632 104.106 2.064 104.682 2.064C105.242 2.064 105.69 1.632 105.69 1.056C105.69 0.496 105.242 0.0479999 104.682 0.0479999C104.106 0.0479999 103.674 0.496 103.674 1.056ZM108.565 1.056C108.565 1.632 108.997 2.064 109.573 2.064C110.133 2.064 110.581 1.632 110.581 1.056C110.581 0.496 110.133 0.0479999 109.573 0.0479999C108.997 0.0479999 108.565 0.496 108.565 1.056ZM113.456 1.056C113.456 1.632 113.888 2.064 114.464 2.064C115.024 2.064 115.472 1.632 115.472 1.056C115.472 0.496 115.024 0.0479999 114.464 0.0479999C113.888 0.0479999 113.456 0.496 113.456 1.056ZM118.346 1.056C118.346 1.632 118.778 2.064 119.354 2.064C119.914 2.064 120.362 1.632 120.362 1.056C120.362 0.496 119.914 0.0479999 119.354 0.0479999C118.778 0.0479999 118.346 0.496 118.346 1.056ZM123.237 1.056C123.237 1.632 123.669 2.064 124.245 2.064C124.805 2.064 125.253 1.632 125.253 1.056C125.253 0.496 124.805 0.0479999 124.245 0.0479999C123.669 0.0479999 123.237 0.496 123.237 1.056ZM128.128 1.056C128.128 1.632 128.56 2.064 129.136 2.064C129.696 2.064 130.144 1.632 130.144 1.056C130.144 0.496 129.696 0.0479999 129.136 0.0479999C128.56 0.0479999 128.128 0.496 128.128 1.056ZM133.018 1.056C133.018 1.632 133.45 2.064 134.026 2.064C134.586 2.064 135.034 1.632 135.034 1.056C135.034 0.496 134.586 0.0479999 134.026 0.0479999C133.45 0.0479999 133.018 0.496 133.018 1.056ZM137.909 1.056C137.909 1.632 138.341 2.064 138.917 2.064C139.477 2.064 139.925 1.632 139.925 1.056C139.925 0.496 139.477 0.0479999 138.917 0.0479999C138.341 0.0479999 137.909 0.496 137.909 1.056ZM142.799 1.056C142.799 1.632 143.231 2.064 143.807 2.064C144.367 2.064 144.815 1.632 144.815 1.056C144.815 0.496 144.367 0.0479999 143.807 0.0479999C143.231 0.0479999 142.799 0.496 142.799 1.056ZM147.69 1.056C147.69 1.632 148.122 2.064 148.698 2.064C149.258 2.064 149.706 1.632 149.706 1.056C149.706 0.496 149.258 0.0479999 148.698 0.0479999C148.122 0.0479999 147.69 0.496 147.69 1.056ZM152.581 1.056C152.581 1.632 153.013 2.064 153.589 2.064C154.149 2.064 154.597 1.632 154.597 1.056C154.597 0.496 154.149 0.0479999 153.589 0.0479999C153.013 0.0479999 152.581 0.496 152.581 1.056ZM157.471 1.056C157.471 1.632 157.903 2.064 158.479 2.064C159.039 2.064 159.487 1.632 159.487 1.056C159.487 0.496 159.039 0.0479999 158.479 0.0479999C157.903 0.0479999 157.471 0.496 157.471 1.056ZM162.362 1.056C162.362 1.632 162.794 2.064 163.37 2.064C163.93 2.064 164.378 1.632 164.378 1.056C164.378 0.496 163.93 0.0479999 163.37 0.0479999C162.794 0.0479999 162.362 0.496 162.362 1.056ZM167.253 1.056C167.253 1.632 167.685 2.064 168.261 2.064C168.821 2.064 169.269 1.632 169.269 1.056C169.269 0.496 168.821 0.0479999 168.261 0.0479999C167.685 0.0479999 167.253 0.496 167.253 1.056ZM172.143 1.056C172.143 1.632 172.575 2.064 173.151 2.064C173.711 2.064 174.159 1.632 174.159 1.056C174.159 0.496 173.711 0.0479999 173.151 0.0479999C172.575 0.0479999 172.143 0.496 172.143 1.056ZM177.034 1.056C177.034 1.632 177.466 2.064 178.042 2.064C178.602 2.064 179.05 1.632 179.05 1.056C179.05 0.496 178.602 0.0479999 178.042 0.0479999C177.466 0.0479999 177.034 0.496 177.034 1.056ZM181.924 1.056C181.924 1.632 182.356 2.064 182.932 2.064C183.492 2.064 183.94 1.632 183.94 1.056C183.94 0.496 183.492 0.0479999 182.932 0.0479999C182.356 0.0479999 181.924 0.496 181.924 1.056ZM186.815 1.056C186.815 1.632 187.247 2.064 187.823 2.064C188.383 2.064 188.831 1.632 188.831 1.056C188.831 0.496 188.383 0.0479999 187.823 0.0479999C187.247 0.0479999 186.815 0.496 186.815 1.056ZM191.706 1.056C191.706 1.632 192.138 2.064 192.714 2.064C193.274 2.064 193.722 1.632 193.722 1.056C193.722 0.496 193.274 0.0479999 192.714 0.0479999C192.138 0.0479999 191.706 0.496 191.706 1.056ZM196.596 1.056C196.596 1.632 197.028 2.064 197.604 2.064C198.164 2.064 198.612 1.632 198.612 1.056C198.612 0.496 198.164 0.0479999 197.604 0.0479999C197.028 0.0479999 196.596 0.496 196.596 1.056ZM201.487 1.056C201.487 1.632 201.919 2.064 202.495 2.064C203.055 2.064 203.503 1.632 203.503 1.056C203.503 0.496 203.055 0.0479999 202.495 0.0479999C201.919 0.0479999 201.487 0.496 201.487 1.056ZM206.378 1.056C206.378 1.632 206.81 2.064 207.386 2.064C207.946 2.064 208.394 1.632 208.394 1.056C208.394 0.496 207.946 0.0479999 207.386 0.0479999C206.81 0.0479999 206.378 0.496 206.378 1.056ZM211.268 1.056C211.268 1.632 211.7 2.064 212.276 2.064C212.836 2.064 213.284 1.632 213.284 1.056C213.284 0.496 212.836 0.0479999 212.276 0.0479999C211.7 0.0479999 211.268 0.496 211.268 1.056ZM216.159 1.056C216.159 1.632 216.591 2.064 217.167 2.064C217.727 2.064 218.175 1.632 218.175 1.056C218.175 0.496 217.727 0.0479999 217.167 0.0479999C216.591 0.0479999 216.159 0.496 216.159 1.056ZM221.049 1.056C221.049 1.632 221.481 2.064 222.057 2.064C222.617 2.064 223.065 1.632 223.065 1.056C223.065 0.496 222.617 0.0479999 222.057 0.0479999C221.481 0.0479999 221.049 0.496 221.049 1.056ZM225.94 1.056C225.94 1.632 226.372 2.064 226.948 2.064C227.508 2.064 227.956 1.632 227.956 1.056C227.956 0.496 227.508 0.0479999 226.948 0.0479999C226.372 0.0479999 225.94 0.496 225.94 1.056ZM230.831 1.056C230.831 1.632 231.263 2.064 231.839 2.064C232.399 2.064 232.847 1.632 232.847 1.056C232.847 0.496 232.399 0.0479999 231.839 0.0479999C231.263 0.0479999 230.831 0.496 230.831 1.056ZM235.721 1.056C235.721 1.632 236.153 2.064 236.729 2.064C237.289 2.064 237.737 1.632 237.737 1.056C237.737 0.496 237.289 0.0479999 236.729 0.0479999C236.153 0.0479999 235.721 0.496 235.721 1.056ZM240.612 1.056C240.612 1.632 241.044 2.064 241.62 2.064C242.18 2.064 242.628 1.632 242.628 1.056C242.628 0.496 242.18 0.0479999 241.62 0.0479999C241.044 0.0479999 240.612 0.496 240.612 1.056ZM245.503 1.056C245.503 1.632 245.935 2.064 246.511 2.064C247.071 2.064 247.519 1.632 247.519 1.056C247.519 0.496 247.071 0.0479999 246.511 0.0479999C245.935 0.0479999 245.503 0.496 245.503 1.056ZM250.393 1.056C250.393 1.632 250.825 2.064 251.401 2.064C251.961 2.064 252.409 1.632 252.409 1.056C252.409 0.496 251.961 0.0479999 251.401 0.0479999C250.825 0.0479999 250.393 0.496 250.393 1.056ZM255.284 1.056C255.284 1.632 255.716 2.064 256.292 2.064C256.852 2.064 257.3 1.632 257.3 1.056C257.3 0.496 256.852 0.0479999 256.292 0.0479999C255.716 0.0479999 255.284 0.496 255.284 1.056ZM260.174 1.056C260.174 1.632 260.606 2.064 261.182 2.064C261.742 2.064 262.19 1.632 262.19 1.056C262.19 0.496 261.742 0.0479999 261.182 0.0479999C260.606 0.0479999 260.174 0.496 260.174 1.056ZM265.065 1.056C265.065 1.632 265.497 2.064 266.073 2.064C266.633 2.064 267.081 1.632 267.081 1.056C267.081 0.496 266.633 0.0479999 266.073 0.0479999C265.497 0.0479999 265.065 0.496 265.065 1.056ZM269.956 1.056C269.956 1.632 270.388 2.064 270.964 2.064C271.524 2.064 271.972 1.632 271.972 1.056C271.972 0.496 271.524 0.0479999 270.964 0.0479999C270.388 0.0479999 269.956 0.496 269.956 1.056ZM274.846 1.056C274.846 1.632 275.278 2.064 275.854 2.064C276.414 2.064 276.862 1.632 276.862 1.056C276.862 0.496 276.414 0.0479999 275.854 0.0479999C275.278 0.0479999 274.846 0.496 274.846 1.056ZM279.737 1.056C279.737 1.632 280.169 2.064 280.745 2.064C281.305 2.064 281.753 1.632 281.753 1.056C281.753 0.496 281.305 0.0479999 280.745 0.0479999C280.169 0.0479999 279.737 0.496 279.737 1.056ZM284.628 1.056C284.628 1.632 285.06 2.064 285.636 2.064C286.196 2.064 286.644 1.632 286.644 1.056C286.644 0.496 286.196 0.0479999 285.636 0.0479999C285.06 0.0479999 284.628 0.496 284.628 1.056ZM289.518 1.056C289.518 1.632 289.95 2.064 290.526 2.064C291.086 2.064 291.534 1.632 291.534 1.056C291.534 0.496 291.086 0.0479999 290.526 0.0479999C289.95 0.0479999 289.518 0.496 289.518 1.056ZM294.409 1.056C294.409 1.632 294.841 2.064 295.417 2.064C295.977 2.064 296.425 1.632 296.425 1.056C296.425 0.496 295.977 0.0479999 295.417 0.0479999C294.841 0.0479999 294.409 0.496 294.409 1.056ZM299.299 1.056C299.299 1.632 299.731 2.064 300.307 2.064C300.867 2.064 301.315 1.632 301.315 1.056C301.315 0.496 300.867 0.0479999 300.307 0.0479999C299.731 0.0479999 299.299 0.496 299.299 1.056ZM304.19 1.056C304.19 1.632 304.622 2.064 305.198 2.064C305.758 2.064 306.206 1.632 306.206 1.056C306.206 0.496 305.758 0.0479999 305.198 0.0479999C304.622 0.0479999 304.19 0.496 304.19 1.056ZM309.081 1.056C309.081 1.632 309.513 2.064 310.089 2.064C310.649 2.064 311.097 1.632 311.097 1.056C311.097 0.496 310.649 0.0479999 310.089 0.0479999C309.513 0.0479999 309.081 0.496 309.081 1.056ZM313.971 1.056C313.971 1.632 314.403 2.064 314.979 2.064C315.539 2.064 315.987 1.632 315.987 1.056C315.987 0.496 315.539 0.0479999 314.979 0.0479999C314.403 0.0479999 313.971 0.496 313.971 1.056ZM318.862 1.056C318.862 1.632 319.294 2.064 319.87 2.064C320.43 2.064 320.878 1.632 320.878 1.056C320.878 0.496 320.43 0.0479999 319.87 0.0479999C319.294 0.0479999 318.862 0.496 318.862 1.056ZM323.753 1.056C323.753 1.632 324.185 2.064 324.761 2.064C325.321 2.064 325.769 1.632 325.769 1.056C325.769 0.496 325.321 0.0479999 324.761 0.0479999C324.185 0.0479999 323.753 0.496 323.753 1.056ZM328.643 1.056C328.643 1.632 329.075 2.064 329.651 2.064C330.211 2.064 330.659 1.632 330.659 1.056C330.659 0.496 330.211 0.0479999 329.651 0.0479999C329.075 0.0479999 328.643 0.496 328.643 1.056ZM333.534 1.056C333.534 1.632 333.966 2.064 334.542 2.064C335.102 2.064 335.55 1.632 335.55 1.056C335.55 0.496 335.102 0.0479999 334.542 0.0479999C333.966 0.0479999 333.534 0.496 333.534 1.056ZM338.424 1.056C338.424 1.632 338.856 2.064 339.432 2.064C339.992 2.064 340.44 1.632 340.44 1.056C340.44 0.496 339.992 0.0479999 339.432 0.0479999C338.856 0.0479999 338.424 0.496 338.424 1.056ZM343.315 1.056C343.315 1.632 343.747 2.064 344.323 2.064C344.883 2.064 345.331 1.632 345.331 1.056C345.331 0.496 344.883 0.0479999 344.323 0.0479999C343.747 0.0479999 343.315 0.496 343.315 1.056ZM348.206 1.056C348.206 1.632 348.638 2.064 349.214 2.064C349.774 2.064 350.222 1.632 350.222 1.056C350.222 0.496 349.774 0.0479999 349.214 0.0479999C348.638 0.0479999 348.206 0.496 348.206 1.056ZM353.096 1.056C353.096 1.632 353.528 2.064 354.104 2.064C354.664 2.064 355.112 1.632 355.112 1.056C355.112 0.496 354.664 0.0479999 354.104 0.0479999C353.528 0.0479999 353.096 0.496 353.096 1.056ZM357.987 1.056C357.987 1.632 358.419 2.064 358.995 2.064C359.555 2.064 360.003 1.632 360.003 1.056C360.003 0.496 359.555 0.0479999 358.995 0.0479999C358.419 0.0479999 357.987 0.496 357.987 1.056ZM362.878 1.056C362.878 1.632 363.31 2.064 363.886 2.064C364.446 2.064 364.894 1.632 364.894 1.056C364.894 0.496 364.446 0.0479999 363.886 0.0479999C363.31 0.0479999 362.878 0.496 362.878 1.056ZM367.768 1.056C367.768 1.632 368.2 2.064 368.776 2.064C369.336 2.064 369.784 1.632 369.784 1.056C369.784 0.496 369.336 0.0479999 368.776 0.0479999C368.2 0.0479999 367.768 0.496 367.768 1.056ZM372.659 1.056C372.659 1.632 373.091 2.064 373.667 2.064C374.227 2.064 374.675 1.632 374.675 1.056C374.675 0.496 374.227 0.0479999 373.667 0.0479999C373.091 0.0479999 372.659 0.496 372.659 1.056ZM377.549 1.056C377.549 1.632 377.981 2.064 378.557 2.064C379.117 2.064 379.565 1.632 379.565 1.056C379.565 0.496 379.117 0.0479999 378.557 0.0479999C377.981 0.0479999 377.549 0.496 377.549 1.056Z" fill="#999999"/>
</svg>
