<svg width="44" height="44" viewBox="0 0 44 44" fill="none" xmlns="http://www.w3.org/2000/svg">
<g clip-path="url(#clip0)">
<path d="M17.8291 13.817C18.1675 13.4786 18.7001 13.4786 19.0385 13.817C19.3654 14.1439 19.3654 14.688 19.0385 15.0142L12.9063 21.1464H33.1417C33.6135 21.1464 34.0006 21.5213 34.0006 21.993C34.0006 22.4647 33.6135 22.8519 33.1417 22.8519H12.9063L19.0385 28.9726C19.3654 29.311 19.3654 29.8559 19.0385 30.182C18.7001 30.5204 18.1675 30.5204 17.8291 30.182L10.2452 22.5981C9.91827 22.2712 9.91827 21.7271 10.2452 21.4009L17.8291 13.817Z" fill="#C4C4C4"/>
</g>
<defs>
<clipPath id="clip0">
<rect width="24" height="24" fill="white" transform="translate(10 10)"/>
</clipPath>
</defs>
</svg>
