<svg width="44" height="44" viewBox="0 0 44 44" fill="none" xmlns="http://www.w3.org/2000/svg">
<g clip-path="url(#clip0)">
<path d="M26.1709 30.183C25.8325 30.5214 25.2999 30.5214 24.9615 30.183C24.6346 29.8561 24.6346 29.312 24.9615 28.9858L31.0937 22.8536L10.8583 22.8536C10.3865 22.8536 9.99943 22.4787 9.99943 22.007C9.99943 21.5353 10.3865 21.1481 10.8583 21.1481L31.0937 21.1481L24.9615 15.0274C24.6346 14.689 24.6346 14.1441 24.9615 13.818C25.2999 13.4796 25.8325 13.4796 26.1709 13.818L33.7548 21.4019C34.0817 21.7288 34.0817 22.2729 33.7548 22.5991L26.1709 30.183Z" fill="#C94D18"/>
</g>
<defs>
<clipPath id="clip0">
<rect width="24" height="24" fill="white" transform="translate(34 34) rotate(-180)"/>
</clipPath>
</defs>
</svg>
